<?xml version="1.0" encoding="iso-8859-1"?>
<!-- Uploaded to: SVG Repo, www.svgrepo.com, Generator: SVG Repo Mixer Tools -->
<!DOCTYPE svg PUBLIC "-//W3C//DTD SVG 1.1//EN" "http://www.w3.org/Graphics/SVG/1.1/DTD/svg11.dtd">
<svg fill="#000000" version="1.1" id="Capa_1" xmlns="http://www.w3.org/2000/svg" xmlns:xlink="http://www.w3.org/1999/xlink" 
	 width="800px" height="800px" viewBox="0 0 937.2 937.2" xml:space="preserve"
	>
<g>
	<g>
		<path d="M438.05,253.7c-30.801-10.9-64.7-17-100.2-17c-108.6,0-201.7,56.4-241,136.7h341.1V253.7H438.05z"/>
		<path d="M191.35,706.2h553.399c84.2-74.301,137.2-181.9,137.2-301.7c0-212.7-166.899-387.2-379.3-404.4c-0.9-0.1-1.8-0.1-2.6-0.1
			c-17.5,0-32,14.2-32,32v234.3v137.2c0,0-286.5,0-382.8,0h-0.1c-17.5,0.1-31.2,14.899-29.8,32.3
			C63.649,543,114.449,638.5,191.35,706.2z"/>
		<circle cx="252.85" cy="841.2" r="96"/>
		<circle cx="669.149" cy="841.2" r="96"/>
	</g>
</g>
</svg>